<svg width="1920" height="448" viewBox="0 0 1920 448" fill="none" xmlns="http://www.w3.org/2000/svg">
<mask id="mask0_3_173" style="mask-type:alpha" maskUnits="userSpaceOnUse" x="0" y="0" width="1920" height="448">
<g clip-path="url(#clip0_3_173)">
<path d="M0 180L1920 0V448H0V180Z" fill="black"/>
</g>
</mask>
<g mask="url(#mask0_3_173)">
<rect width="1920" height="448" fill="url(#paint0_linear_3_173)"/>
<path d="M876.52 188.48C874.36 188.48 872.347 188.133 870.48 187.44C868.64 186.72 867.04 185.707 865.68 184.4C864.32 183.093 863.254 181.56 862.48 179.8C861.734 178.04 861.36 176.107 861.36 174C861.36 171.893 861.734 169.96 862.48 168.2C863.254 166.44 864.32 164.907 865.68 163.6C867.067 162.293 868.68 161.293 870.52 160.6C872.36 159.88 874.374 159.52 876.56 159.52C878.987 159.52 881.174 159.947 883.12 160.8C885.094 161.627 886.747 162.853 888.08 164.48L883.92 168.32C882.96 167.227 881.894 166.413 880.72 165.88C879.547 165.32 878.267 165.04 876.88 165.04C875.574 165.04 874.374 165.253 873.28 165.68C872.187 166.107 871.24 166.72 870.44 167.52C869.64 168.32 869.014 169.267 868.56 170.36C868.134 171.453 867.92 172.667 867.92 174C867.92 175.333 868.134 176.547 868.56 177.64C869.014 178.733 869.64 179.68 870.44 180.48C871.24 181.28 872.187 181.893 873.28 182.32C874.374 182.747 875.574 182.96 876.88 182.96C878.267 182.96 879.547 182.693 880.72 182.16C881.894 181.6 882.96 180.76 883.92 179.64L888.08 183.48C886.747 185.107 885.094 186.347 883.12 187.2C881.174 188.053 878.974 188.48 876.52 188.48ZM905.47 188.48C903.257 188.48 901.204 188.12 899.31 187.4C897.444 186.68 895.817 185.667 894.43 184.36C893.07 183.053 892.004 181.52 891.23 179.76C890.484 178 890.11 176.08 890.11 174C890.11 171.92 890.484 170 891.23 168.24C892.004 166.48 893.084 164.947 894.47 163.64C895.857 162.333 897.484 161.32 899.35 160.6C901.217 159.88 903.244 159.52 905.43 159.52C907.644 159.52 909.67 159.88 911.51 160.6C913.377 161.32 914.99 162.333 916.35 163.64C917.737 164.947 918.817 166.48 919.59 168.24C920.364 169.973 920.75 171.893 920.75 174C920.75 176.08 920.364 178.013 919.59 179.8C918.817 181.56 917.737 183.093 916.35 184.4C914.99 185.68 913.377 186.68 911.51 187.4C909.67 188.12 907.657 188.48 905.47 188.48ZM905.43 182.96C906.684 182.96 907.83 182.747 908.87 182.32C909.937 181.893 910.87 181.28 911.67 180.48C912.47 179.68 913.084 178.733 913.51 177.64C913.964 176.547 914.19 175.333 914.19 174C914.19 172.667 913.964 171.453 913.51 170.36C913.084 169.267 912.47 168.32 911.67 167.52C910.897 166.72 909.977 166.107 908.91 165.68C907.844 165.253 906.684 165.04 905.43 165.04C904.177 165.04 903.017 165.253 901.95 165.68C900.91 166.107 899.99 166.72 899.19 167.52C898.39 168.32 897.764 169.267 897.31 170.36C896.884 171.453 896.67 172.667 896.67 174C896.67 175.307 896.884 176.52 897.31 177.64C897.764 178.733 898.377 179.68 899.15 180.48C899.95 181.28 900.884 181.893 901.95 182.32C903.017 182.747 904.177 182.96 905.43 182.96ZM925.62 188V160H930.98L947.5 180.16H944.9V160H951.3V188H945.98L929.42 167.84H932.02V188H925.62ZM963.725 188V165.28H954.765V160H979.165V165.28H970.205V188H963.725ZM977.565 188L990.045 160H996.445L1008.97 188H1002.17L991.925 163.28H994.485L984.205 188H977.565ZM983.805 182L985.525 177.08H999.925L1001.69 182H983.805ZM1024.88 188.48C1022.72 188.48 1020.71 188.133 1018.84 187.44C1017 186.72 1015.4 185.707 1014.04 184.4C1012.68 183.093 1011.61 181.56 1010.84 179.8C1010.09 178.04 1009.72 176.107 1009.72 174C1009.72 171.893 1010.09 169.96 1010.84 168.2C1011.61 166.44 1012.68 164.907 1014.04 163.6C1015.43 162.293 1017.04 161.293 1018.88 160.6C1020.72 159.88 1022.73 159.52 1024.92 159.52C1027.35 159.52 1029.53 159.947 1031.48 160.8C1033.45 161.627 1035.11 162.853 1036.44 164.48L1032.28 168.32C1031.32 167.227 1030.25 166.413 1029.08 165.88C1027.91 165.32 1026.63 165.04 1025.24 165.04C1023.93 165.04 1022.73 165.253 1021.64 165.68C1020.55 166.107 1019.6 166.72 1018.8 167.52C1018 168.32 1017.37 169.267 1016.92 170.36C1016.49 171.453 1016.28 172.667 1016.28 174C1016.28 175.333 1016.49 176.547 1016.92 177.64C1017.37 178.733 1018 179.68 1018.8 180.48C1019.6 181.28 1020.55 181.893 1021.64 182.32C1022.73 182.747 1023.93 182.96 1025.24 182.96C1026.63 182.96 1027.91 182.693 1029.08 182.16C1030.25 181.6 1031.32 180.76 1032.28 179.64L1036.44 183.48C1035.11 185.107 1033.45 186.347 1031.48 187.2C1029.53 188.053 1027.33 188.48 1024.88 188.48ZM1046.34 188V165.28H1037.38V160H1061.78V165.28H1052.82V188H1046.34Z" fill="#272341"/>
<path d="M517.793 270V253.2H519.569V270H517.793ZM538.853 270V267.216L538.781 266.76V262.104C538.781 261.032 538.477 260.208 537.869 259.632C537.277 259.056 536.389 258.768 535.205 258.768C534.389 258.768 533.613 258.904 532.877 259.176C532.141 259.448 531.517 259.808 531.005 260.256L530.237 258.984C530.877 258.44 531.645 258.024 532.541 257.736C533.437 257.432 534.381 257.28 535.373 257.28C537.005 257.28 538.261 257.688 539.141 258.504C540.037 259.304 540.485 260.528 540.485 262.176V270H538.853ZM534.509 270.12C533.565 270.12 532.741 269.968 532.037 269.664C531.349 269.344 530.821 268.912 530.453 268.368C530.085 267.808 529.901 267.168 529.901 266.448C529.901 265.792 530.053 265.2 530.357 264.672C530.677 264.128 531.189 263.696 531.893 263.376C532.613 263.04 533.573 262.872 534.773 262.872H539.117V264.144H534.821C533.605 264.144 532.757 264.36 532.277 264.792C531.813 265.224 531.581 265.76 531.581 266.4C531.581 267.12 531.861 267.696 532.421 268.128C532.981 268.56 533.765 268.776 534.773 268.776C535.733 268.776 536.557 268.56 537.245 268.128C537.949 267.68 538.461 267.04 538.781 266.208L539.165 267.384C538.845 268.216 538.285 268.88 537.485 269.376C536.701 269.872 535.709 270.12 534.509 270.12ZM560.857 257.28C561.881 257.28 562.769 257.48 563.521 257.88C564.289 258.264 564.881 258.856 565.297 259.656C565.729 260.456 565.945 261.464 565.945 262.68V270H564.241V262.848C564.241 261.52 563.921 260.52 563.281 259.848C562.657 259.16 561.769 258.816 560.617 258.816C559.753 258.816 559.001 259 558.361 259.368C557.737 259.72 557.249 260.24 556.897 260.928C556.561 261.6 556.393 262.416 556.393 263.376V270H554.689V262.848C554.689 261.52 554.369 260.52 553.729 259.848C553.089 259.16 552.193 258.816 551.041 258.816C550.193 258.816 549.449 259 548.809 259.368C548.169 259.72 547.673 260.24 547.321 260.928C546.985 261.6 546.817 262.416 546.817 263.376V270H545.113V257.4H546.745V260.808L546.481 260.208C546.865 259.296 547.481 258.584 548.329 258.072C549.193 257.544 550.209 257.28 551.377 257.28C552.609 257.28 553.657 257.592 554.521 258.216C555.385 258.824 555.945 259.744 556.201 260.976L555.529 260.712C555.897 259.688 556.545 258.864 557.473 258.24C558.417 257.6 559.545 257.28 560.857 257.28ZM584.743 270V267.216L584.671 266.76V262.104C584.671 261.032 584.367 260.208 583.759 259.632C583.167 259.056 582.279 258.768 581.095 258.768C580.279 258.768 579.503 258.904 578.767 259.176C578.031 259.448 577.407 259.808 576.895 260.256L576.127 258.984C576.767 258.44 577.535 258.024 578.431 257.736C579.327 257.432 580.271 257.28 581.263 257.28C582.895 257.28 584.151 257.688 585.031 258.504C585.927 259.304 586.375 260.528 586.375 262.176V270H584.743ZM580.399 270.12C579.455 270.12 578.631 269.968 577.927 269.664C577.239 269.344 576.711 268.912 576.343 268.368C575.975 267.808 575.791 267.168 575.791 266.448C575.791 265.792 575.943 265.2 576.247 264.672C576.567 264.128 577.079 263.696 577.783 263.376C578.503 263.04 579.463 262.872 580.663 262.872H585.007V264.144H580.711C579.495 264.144 578.647 264.36 578.167 264.792C577.703 265.224 577.471 265.76 577.471 266.4C577.471 267.12 577.751 267.696 578.311 268.128C578.871 268.56 579.655 268.776 580.663 268.776C581.623 268.776 582.447 268.56 583.135 268.128C583.839 267.68 584.351 267.04 584.671 266.208L585.055 267.384C584.735 268.216 584.175 268.88 583.375 269.376C582.591 269.872 581.599 270.12 580.399 270.12ZM594.009 270L588.417 257.4H590.193L595.329 269.088H594.489L599.697 257.4H601.377L595.761 270H594.009ZM611.298 270V267.216L611.226 266.76V262.104C611.226 261.032 610.922 260.208 610.314 259.632C609.722 259.056 608.834 258.768 607.65 258.768C606.834 258.768 606.058 258.904 605.322 259.176C604.586 259.448 603.962 259.808 603.45 260.256L602.682 258.984C603.322 258.44 604.09 258.024 604.986 257.736C605.882 257.432 606.826 257.28 607.818 257.28C609.45 257.28 610.706 257.688 611.586 258.504C612.482 259.304 612.93 260.528 612.93 262.176V270H611.298ZM606.954 270.12C606.01 270.12 605.186 269.968 604.482 269.664C603.794 269.344 603.266 268.912 602.898 268.368C602.53 267.808 602.346 267.168 602.346 266.448C602.346 265.792 602.498 265.2 602.802 264.672C603.122 264.128 603.634 263.696 604.338 263.376C605.058 263.04 606.018 262.872 607.218 262.872H611.562V264.144H607.266C606.05 264.144 605.202 264.36 604.722 264.792C604.258 265.224 604.026 265.76 604.026 266.4C604.026 267.12 604.306 267.696 604.866 268.128C605.426 268.56 606.21 268.776 607.218 268.776C608.178 268.776 609.002 268.56 609.69 268.128C610.394 267.68 610.906 267.04 611.226 266.208L611.61 267.384C611.29 268.216 610.73 268.88 609.93 269.376C609.146 269.872 608.154 270.12 606.954 270.12ZM617.558 270V257.4H619.262V270H617.558ZM618.422 254.616C618.07 254.616 617.774 254.496 617.534 254.256C617.294 254.016 617.174 253.728 617.174 253.392C617.174 253.056 617.294 252.776 617.534 252.552C617.774 252.312 618.07 252.192 618.422 252.192C618.774 252.192 619.07 252.304 619.31 252.528C619.55 252.752 619.67 253.032 619.67 253.368C619.67 253.72 619.55 254.016 619.31 254.256C619.086 254.496 618.79 254.616 618.422 254.616ZM624.004 270V252.192H625.708V270H624.004ZM638.345 270V267.216L638.273 266.76V262.104C638.273 261.032 637.969 260.208 637.361 259.632C636.769 259.056 635.881 258.768 634.697 258.768C633.881 258.768 633.105 258.904 632.369 259.176C631.633 259.448 631.009 259.808 630.497 260.256L629.729 258.984C630.369 258.44 631.137 258.024 632.033 257.736C632.929 257.432 633.873 257.28 634.865 257.28C636.497 257.28 637.753 257.688 638.633 258.504C639.529 259.304 639.977 260.528 639.977 262.176V270H638.345ZM634.001 270.12C633.057 270.12 632.233 269.968 631.529 269.664C630.841 269.344 630.313 268.912 629.945 268.368C629.577 267.808 629.393 267.168 629.393 266.448C629.393 265.792 629.545 265.2 629.849 264.672C630.169 264.128 630.681 263.696 631.385 263.376C632.105 263.04 633.065 262.872 634.265 262.872H638.609V264.144H634.313C633.097 264.144 632.249 264.36 631.769 264.792C631.305 265.224 631.073 265.76 631.073 266.4C631.073 267.12 631.353 267.696 631.913 268.128C632.473 268.56 633.257 268.776 634.265 268.776C635.225 268.776 636.049 268.56 636.737 268.128C637.441 267.68 637.953 267.04 638.273 266.208L638.657 267.384C638.337 268.216 637.777 268.88 636.977 269.376C636.193 269.872 635.201 270.12 634.001 270.12ZM651.109 270.12C650.005 270.12 649.013 269.872 648.133 269.376C647.253 268.864 646.557 268.128 646.045 267.168C645.533 266.208 645.277 265.048 645.277 263.688C645.277 262.312 645.533 261.152 646.045 260.208C646.573 259.248 647.277 258.52 648.157 258.024C649.037 257.528 650.021 257.28 651.109 257.28C652.309 257.28 653.381 257.552 654.325 258.096C655.285 258.624 656.037 259.368 656.581 260.328C657.125 261.288 657.397 262.408 657.397 263.688C657.397 264.952 657.125 266.072 656.581 267.048C656.037 268.008 655.285 268.76 654.325 269.304C653.381 269.848 652.309 270.12 651.109 270.12ZM644.605 270V252.192H646.309V261.12L646.069 263.664L646.237 266.208V270H644.605ZM650.989 268.608C651.885 268.608 652.685 268.408 653.389 268.008C654.093 267.592 654.653 267.016 655.069 266.28C655.485 265.528 655.693 264.664 655.693 263.688C655.693 262.696 655.485 261.832 655.069 261.096C654.653 260.36 654.093 259.792 653.389 259.392C652.685 258.976 651.885 258.768 650.989 258.768C650.093 258.768 649.285 258.976 648.565 259.392C647.861 259.792 647.301 260.36 646.885 261.096C646.485 261.832 646.285 262.696 646.285 263.688C646.285 264.664 646.485 265.528 646.885 266.28C647.301 267.016 647.861 267.592 648.565 268.008C649.285 268.408 650.093 268.608 650.989 268.608ZM660.871 270V252.192H662.575V270H660.871ZM672.668 270.12C671.356 270.12 670.204 269.848 669.212 269.304C668.22 268.744 667.444 267.984 666.884 267.024C666.324 266.048 666.044 264.936 666.044 263.688C666.044 262.44 666.308 261.336 666.836 260.376C667.38 259.416 668.116 258.664 669.044 258.12C669.988 257.56 671.044 257.28 672.212 257.28C673.396 257.28 674.444 257.552 675.356 258.096C676.284 258.624 677.012 259.376 677.54 260.352C678.068 261.312 678.332 262.424 678.332 263.688C678.332 263.768 678.324 263.856 678.308 263.952C678.308 264.032 678.308 264.12 678.308 264.216H667.34V262.944H677.396L676.724 263.448C676.724 262.536 676.524 261.728 676.124 261.024C675.74 260.304 675.212 259.744 674.54 259.344C673.868 258.944 673.092 258.744 672.212 258.744C671.348 258.744 670.572 258.944 669.884 259.344C669.196 259.744 668.66 260.304 668.276 261.024C667.892 261.744 667.7 262.568 667.7 263.496V263.76C667.7 264.72 667.908 265.568 668.324 266.304C668.756 267.024 669.348 267.592 670.1 268.008C670.868 268.408 671.74 268.608 672.716 268.608C673.484 268.608 674.196 268.472 674.852 268.2C675.524 267.928 676.1 267.512 676.58 266.952L677.54 268.056C676.98 268.728 676.276 269.24 675.428 269.592C674.596 269.944 673.676 270.12 672.668 270.12ZM688.37 270V255.816C688.37 254.696 688.698 253.792 689.354 253.104C690.01 252.416 690.954 252.072 692.186 252.072C692.666 252.072 693.13 252.136 693.578 252.264C694.026 252.392 694.402 252.592 694.706 252.864L694.13 254.136C693.89 253.928 693.61 253.776 693.29 253.68C692.97 253.568 692.626 253.512 692.258 253.512C691.538 253.512 690.986 253.712 690.602 254.112C690.218 254.512 690.026 255.104 690.026 255.888V257.808L690.074 258.6V270H688.37ZM686.114 258.816V257.4H693.914V258.816H686.114ZM701.14 270.12C699.924 270.12 698.828 269.848 697.852 269.304C696.892 268.744 696.132 267.984 695.572 267.024C695.012 266.048 694.732 264.936 694.732 263.688C694.732 262.424 695.012 261.312 695.572 260.352C696.132 259.392 696.892 258.64 697.852 258.096C698.812 257.552 699.908 257.28 701.14 257.28C702.388 257.28 703.492 257.552 704.452 258.096C705.428 258.64 706.188 259.392 706.732 260.352C707.292 261.312 707.572 262.424 707.572 263.688C707.572 264.936 707.292 266.048 706.732 267.024C706.188 267.984 705.428 268.744 704.452 269.304C703.476 269.848 702.372 270.12 701.14 270.12ZM701.14 268.608C702.052 268.608 702.86 268.408 703.564 268.008C704.268 267.592 704.82 267.016 705.22 266.28C705.636 265.528 705.844 264.664 705.844 263.688C705.844 262.696 705.636 261.832 705.22 261.096C704.82 260.36 704.268 259.792 703.564 259.392C702.86 258.976 702.06 258.768 701.164 258.768C700.268 258.768 699.468 258.976 698.764 259.392C698.06 259.792 697.5 260.36 697.084 261.096C696.668 261.832 696.46 262.696 696.46 263.688C696.46 264.664 696.668 265.528 697.084 266.28C697.5 267.016 698.06 267.592 698.764 268.008C699.468 268.408 700.26 268.608 701.14 268.608ZM711.05 270V257.4H712.682V260.832L712.514 260.232C712.866 259.272 713.458 258.544 714.29 258.048C715.122 257.536 716.154 257.28 717.386 257.28V258.936C717.322 258.936 717.258 258.936 717.194 258.936C717.13 258.92 717.066 258.912 717.002 258.912C715.674 258.912 714.634 259.32 713.882 260.136C713.13 260.936 712.754 262.08 712.754 263.568V270H711.05ZM727.253 270V255.816C727.253 254.696 727.581 253.792 728.237 253.104C728.893 252.416 729.837 252.072 731.069 252.072C731.549 252.072 732.013 252.136 732.461 252.264C732.909 252.392 733.285 252.592 733.589 252.864L733.013 254.136C732.773 253.928 732.493 253.776 732.173 253.68C731.853 253.568 731.509 253.512 731.141 253.512C730.421 253.512 729.869 253.712 729.485 254.112C729.101 254.512 728.909 255.104 728.909 255.888V257.808L728.957 258.6V270H727.253ZM724.997 258.816V257.4H732.797V258.816H724.997ZM735.097 270V257.4H736.729V260.832L736.561 260.232C736.913 259.272 737.505 258.544 738.337 258.048C739.169 257.536 740.201 257.28 741.433 257.28V258.936C741.369 258.936 741.305 258.936 741.241 258.936C741.177 258.92 741.113 258.912 741.049 258.912C739.721 258.912 738.681 259.32 737.929 260.136C737.177 260.936 736.801 262.08 736.801 263.568V270H735.097ZM749.777 270.12C748.465 270.12 747.313 269.848 746.321 269.304C745.329 268.744 744.553 267.984 743.993 267.024C743.433 266.048 743.153 264.936 743.153 263.688C743.153 262.44 743.417 261.336 743.945 260.376C744.489 259.416 745.225 258.664 746.153 258.12C747.097 257.56 748.153 257.28 749.321 257.28C750.505 257.28 751.553 257.552 752.465 258.096C753.393 258.624 754.121 259.376 754.649 260.352C755.177 261.312 755.441 262.424 755.441 263.688C755.441 263.768 755.433 263.856 755.417 263.952C755.417 264.032 755.417 264.12 755.417 264.216H744.449V262.944H754.505L753.833 263.448C753.833 262.536 753.633 261.728 753.233 261.024C752.849 260.304 752.321 259.744 751.649 259.344C750.977 258.944 750.201 258.744 749.321 258.744C748.457 258.744 747.681 258.944 746.993 259.344C746.305 259.744 745.769 260.304 745.385 261.024C745.001 261.744 744.809 262.568 744.809 263.496V263.76C744.809 264.72 745.017 265.568 745.433 266.304C745.865 267.024 746.457 267.592 747.209 268.008C747.977 268.408 748.849 268.608 749.825 268.608C750.593 268.608 751.305 268.472 751.961 268.2C752.633 267.928 753.209 267.512 753.689 266.952L754.649 268.056C754.089 268.728 753.385 269.24 752.537 269.592C751.705 269.944 750.785 270.12 749.777 270.12ZM764.262 270.12C762.95 270.12 761.798 269.848 760.806 269.304C759.814 268.744 759.038 267.984 758.478 267.024C757.918 266.048 757.638 264.936 757.638 263.688C757.638 262.44 757.902 261.336 758.43 260.376C758.974 259.416 759.71 258.664 760.638 258.12C761.582 257.56 762.638 257.28 763.806 257.28C764.99 257.28 766.038 257.552 766.95 258.096C767.878 258.624 768.606 259.376 769.134 260.352C769.662 261.312 769.926 262.424 769.926 263.688C769.926 263.768 769.918 263.856 769.902 263.952C769.902 264.032 769.902 264.12 769.902 264.216H758.934V262.944H768.99L768.318 263.448C768.318 262.536 768.118 261.728 767.718 261.024C767.334 260.304 766.806 259.744 766.134 259.344C765.462 258.944 764.686 258.744 763.806 258.744C762.942 258.744 762.166 258.944 761.478 259.344C760.79 259.744 760.254 260.304 759.87 261.024C759.486 261.744 759.294 262.568 759.294 263.496V263.76C759.294 264.72 759.502 265.568 759.918 266.304C760.35 267.024 760.942 267.592 761.694 268.008C762.462 268.408 763.334 268.608 764.31 268.608C765.078 268.608 765.79 268.472 766.446 268.2C767.118 267.928 767.694 267.512 768.174 266.952L769.134 268.056C768.574 268.728 767.87 269.24 767.022 269.592C766.19 269.944 765.27 270.12 764.262 270.12ZM773.394 270V252.192H775.098V270H773.394ZM787.736 270V267.216L787.664 266.76V262.104C787.664 261.032 787.36 260.208 786.752 259.632C786.16 259.056 785.272 258.768 784.088 258.768C783.272 258.768 782.496 258.904 781.76 259.176C781.024 259.448 780.4 259.808 779.888 260.256L779.12 258.984C779.76 258.44 780.528 258.024 781.424 257.736C782.32 257.432 783.264 257.28 784.256 257.28C785.888 257.28 787.144 257.688 788.024 258.504C788.92 259.304 789.368 260.528 789.368 262.176V270H787.736ZM783.392 270.12C782.448 270.12 781.624 269.968 780.92 269.664C780.232 269.344 779.704 268.912 779.336 268.368C778.968 267.808 778.784 267.168 778.784 266.448C778.784 265.792 778.936 265.2 779.24 264.672C779.56 264.128 780.072 263.696 780.776 263.376C781.496 263.04 782.456 262.872 783.656 262.872H788V264.144H783.704C782.488 264.144 781.64 264.36 781.16 264.792C780.696 265.224 780.464 265.76 780.464 266.4C780.464 267.12 780.744 267.696 781.304 268.128C781.864 268.56 782.648 268.776 783.656 268.776C784.616 268.776 785.44 268.56 786.128 268.128C786.832 267.68 787.344 267.04 787.664 266.208L788.048 267.384C787.728 268.216 787.168 268.88 786.368 269.376C785.584 269.872 784.592 270.12 783.392 270.12ZM800.428 257.28C801.452 257.28 802.348 257.48 803.116 257.88C803.9 258.264 804.508 258.856 804.94 259.656C805.388 260.456 805.612 261.464 805.612 262.68V270H803.908V262.848C803.908 261.52 803.572 260.52 802.9 259.848C802.244 259.16 801.316 258.816 800.116 258.816C799.22 258.816 798.436 259 797.764 259.368C797.108 259.72 796.596 260.24 796.228 260.928C795.876 261.6 795.7 262.416 795.7 263.376V270H793.996V257.4H795.628V260.856L795.364 260.208C795.764 259.296 796.404 258.584 797.284 258.072C798.164 257.544 799.212 257.28 800.428 257.28ZM815.447 270.12C814.199 270.12 813.079 269.848 812.087 269.304C811.111 268.744 810.343 267.984 809.783 267.024C809.223 266.048 808.943 264.936 808.943 263.688C808.943 262.424 809.223 261.312 809.783 260.352C810.343 259.392 811.111 258.64 812.087 258.096C813.079 257.552 814.199 257.28 815.447 257.28C816.519 257.28 817.487 257.488 818.351 257.904C819.215 258.32 819.895 258.944 820.391 259.776L819.119 260.64C818.687 260 818.151 259.528 817.511 259.224C816.871 258.92 816.175 258.768 815.423 258.768C814.527 258.768 813.719 258.976 812.999 259.392C812.279 259.792 811.711 260.36 811.295 261.096C810.879 261.832 810.671 262.696 810.671 263.688C810.671 264.68 810.879 265.544 811.295 266.28C811.711 267.016 812.279 267.592 812.999 268.008C813.719 268.408 814.527 268.608 815.423 268.608C816.175 268.608 816.871 268.456 817.511 268.152C818.151 267.848 818.687 267.384 819.119 266.76L820.391 267.624C819.895 268.44 819.215 269.064 818.351 269.496C817.487 269.912 816.519 270.12 815.447 270.12ZM828.879 270.12C827.567 270.12 826.415 269.848 825.423 269.304C824.431 268.744 823.655 267.984 823.095 267.024C822.535 266.048 822.255 264.936 822.255 263.688C822.255 262.44 822.519 261.336 823.047 260.376C823.591 259.416 824.327 258.664 825.255 258.12C826.199 257.56 827.255 257.28 828.423 257.28C829.607 257.28 830.655 257.552 831.567 258.096C832.495 258.624 833.223 259.376 833.751 260.352C834.279 261.312 834.543 262.424 834.543 263.688C834.543 263.768 834.535 263.856 834.519 263.952C834.519 264.032 834.519 264.12 834.519 264.216H823.551V262.944H833.607L832.935 263.448C832.935 262.536 832.735 261.728 832.335 261.024C831.951 260.304 831.423 259.744 830.751 259.344C830.079 258.944 829.303 258.744 828.423 258.744C827.559 258.744 826.783 258.944 826.095 259.344C825.407 259.744 824.871 260.304 824.487 261.024C824.103 261.744 823.911 262.568 823.911 263.496V263.76C823.911 264.72 824.119 265.568 824.535 266.304C824.967 267.024 825.559 267.592 826.311 268.008C827.079 268.408 827.951 268.608 828.927 268.608C829.695 268.608 830.407 268.472 831.063 268.2C831.735 267.928 832.311 267.512 832.791 266.952L833.751 268.056C833.191 268.728 832.487 269.24 831.639 269.592C830.807 269.944 829.887 270.12 828.879 270.12ZM849.429 270.12C848.213 270.12 847.117 269.848 846.141 269.304C845.181 268.744 844.421 267.984 843.861 267.024C843.301 266.048 843.021 264.936 843.021 263.688C843.021 262.424 843.301 261.312 843.861 260.352C844.421 259.392 845.181 258.64 846.141 258.096C847.101 257.552 848.197 257.28 849.429 257.28C850.677 257.28 851.781 257.552 852.741 258.096C853.717 258.64 854.477 259.392 855.021 260.352C855.581 261.312 855.861 262.424 855.861 263.688C855.861 264.936 855.581 266.048 855.021 267.024C854.477 267.984 853.717 268.744 852.741 269.304C851.765 269.848 850.661 270.12 849.429 270.12ZM849.429 268.608C850.341 268.608 851.149 268.408 851.853 268.008C852.557 267.592 853.109 267.016 853.509 266.28C853.925 265.528 854.133 264.664 854.133 263.688C854.133 262.696 853.925 261.832 853.509 261.096C853.109 260.36 852.557 259.792 851.853 259.392C851.149 258.976 850.349 258.768 849.453 258.768C848.557 258.768 847.757 258.976 847.053 259.392C846.349 259.792 845.789 260.36 845.373 261.096C844.957 261.832 844.749 262.696 844.749 263.688C844.749 264.664 844.957 265.528 845.373 266.28C845.789 267.016 846.349 267.592 847.053 268.008C847.757 268.408 848.549 268.608 849.429 268.608ZM859.34 270V257.4H860.972V260.832L860.804 260.232C861.156 259.272 861.748 258.544 862.58 258.048C863.412 257.536 864.444 257.28 865.676 257.28V258.936C865.612 258.936 865.548 258.936 865.484 258.936C865.42 258.92 865.356 258.912 865.292 258.912C863.964 258.912 862.924 259.32 862.172 260.136C861.42 260.936 861.044 262.08 861.044 263.568V270H859.34ZM875.542 270V255.816C875.542 254.696 875.87 253.792 876.526 253.104C877.182 252.416 878.126 252.072 879.358 252.072C879.838 252.072 880.302 252.136 880.75 252.264C881.198 252.392 881.574 252.592 881.878 252.864L881.302 254.136C881.062 253.928 880.782 253.776 880.462 253.68C880.142 253.568 879.798 253.512 879.43 253.512C878.71 253.512 878.158 253.712 877.774 254.112C877.39 254.512 877.198 255.104 877.198 255.888V257.808L877.246 258.6V270H875.542ZM873.286 258.816V257.4H881.086V258.816H873.286ZM888.594 270.12C887.522 270.12 886.586 269.92 885.786 269.52C884.986 269.12 884.362 268.52 883.914 267.72C883.482 266.92 883.266 265.92 883.266 264.72V257.4H884.97V264.528C884.97 265.872 885.298 266.888 885.954 267.576C886.626 268.248 887.562 268.584 888.762 268.584C889.642 268.584 890.402 268.408 891.042 268.056C891.698 267.688 892.194 267.16 892.53 266.472C892.882 265.784 893.058 264.96 893.058 264V257.4H894.762V270H893.13V266.544L893.394 267.168C892.994 268.096 892.37 268.824 891.522 269.352C890.69 269.864 889.714 270.12 888.594 270.12ZM899.511 270V252.192H901.215V270H899.511ZM905.957 270V252.192H907.661V270H905.957ZM911.466 264.24V262.752H917.754V264.24H911.466ZM925.784 270.12C924.6 270.12 923.688 269.8 923.048 269.16C922.408 268.52 922.088 267.616 922.088 266.448V254.616H923.792V266.352C923.792 267.088 923.976 267.656 924.344 268.056C924.728 268.456 925.272 268.656 925.976 268.656C926.728 268.656 927.352 268.44 927.848 268.008L928.448 269.232C928.112 269.536 927.704 269.76 927.224 269.904C926.76 270.048 926.28 270.12 925.784 270.12ZM919.832 258.816V257.4H927.632V258.816H919.832ZM931.55 270V257.4H933.254V270H931.55ZM932.414 254.616C932.062 254.616 931.766 254.496 931.526 254.256C931.286 254.016 931.166 253.728 931.166 253.392C931.166 253.056 931.286 252.776 931.526 252.552C931.766 252.312 932.062 252.192 932.414 252.192C932.766 252.192 933.062 252.304 933.302 252.528C933.542 252.752 933.662 253.032 933.662 253.368C933.662 253.72 933.542 254.016 933.302 254.256C933.078 254.496 932.782 254.616 932.414 254.616ZM953.74 257.28C954.764 257.28 955.652 257.48 956.404 257.88C957.172 258.264 957.764 258.856 958.18 259.656C958.612 260.456 958.828 261.464 958.828 262.68V270H957.124V262.848C957.124 261.52 956.804 260.52 956.164 259.848C955.54 259.16 954.652 258.816 953.5 258.816C952.636 258.816 951.884 259 951.244 259.368C950.62 259.72 950.132 260.24 949.78 260.928C949.444 261.6 949.276 262.416 949.276 263.376V270H947.572V262.848C947.572 261.52 947.252 260.52 946.612 259.848C945.972 259.16 945.076 258.816 943.924 258.816C943.076 258.816 942.332 259 941.692 259.368C941.052 259.72 940.556 260.24 940.204 260.928C939.868 261.6 939.7 262.416 939.7 263.376V270H937.996V257.4H939.628V260.808L939.364 260.208C939.748 259.296 940.364 258.584 941.212 258.072C942.076 257.544 943.092 257.28 944.26 257.28C945.492 257.28 946.54 257.592 947.404 258.216C948.268 258.824 948.828 259.744 949.084 260.976L948.412 260.712C948.78 259.688 949.428 258.864 950.356 258.24C951.3 257.6 952.428 257.28 953.74 257.28ZM968.801 270.12C967.489 270.12 966.337 269.848 965.345 269.304C964.353 268.744 963.577 267.984 963.017 267.024C962.457 266.048 962.177 264.936 962.177 263.688C962.177 262.44 962.441 261.336 962.969 260.376C963.513 259.416 964.249 258.664 965.177 258.12C966.121 257.56 967.177 257.28 968.345 257.28C969.529 257.28 970.577 257.552 971.489 258.096C972.417 258.624 973.145 259.376 973.673 260.352C974.201 261.312 974.465 262.424 974.465 263.688C974.465 263.768 974.457 263.856 974.441 263.952C974.441 264.032 974.441 264.12 974.441 264.216H963.473V262.944H973.529L972.857 263.448C972.857 262.536 972.657 261.728 972.257 261.024C971.873 260.304 971.345 259.744 970.673 259.344C970.001 258.944 969.225 258.744 968.345 258.744C967.481 258.744 966.705 258.944 966.017 259.344C965.329 259.744 964.793 260.304 964.409 261.024C964.025 261.744 963.833 262.568 963.833 263.496V263.76C963.833 264.72 964.041 265.568 964.457 266.304C964.889 267.024 965.481 267.592 966.233 268.008C967.001 268.408 967.873 268.608 968.849 268.608C969.617 268.608 970.329 268.472 970.985 268.2C971.657 267.928 972.233 267.512 972.713 266.952L973.673 268.056C973.113 268.728 972.409 269.24 971.561 269.592C970.729 269.944 969.809 270.12 968.801 270.12ZM990.719 270.12C989.631 270.12 988.647 269.872 987.767 269.376C986.887 268.864 986.183 268.136 985.655 267.192C985.143 266.232 984.887 265.064 984.887 263.688C984.887 262.312 985.143 261.152 985.655 260.208C986.167 259.248 986.863 258.52 987.743 258.024C988.623 257.528 989.615 257.28 990.719 257.28C991.919 257.28 992.991 257.552 993.935 258.096C994.895 258.624 995.647 259.376 996.191 260.352C996.735 261.312 997.007 262.424 997.007 263.688C997.007 264.968 996.735 266.088 996.191 267.048C995.647 268.008 994.895 268.76 993.935 269.304C992.991 269.848 991.919 270.12 990.719 270.12ZM984.215 274.656V257.4H985.847V261.192L985.679 263.712L985.919 266.256V274.656H984.215ZM990.599 268.608C991.495 268.608 992.295 268.408 992.999 268.008C993.703 267.592 994.263 267.016 994.679 266.28C995.095 265.528 995.303 264.664 995.303 263.688C995.303 262.712 995.095 261.856 994.679 261.12C994.263 260.384 993.703 259.808 992.999 259.392C992.295 258.976 991.495 258.768 990.599 258.768C989.703 258.768 988.895 258.976 988.175 259.392C987.471 259.808 986.911 260.384 986.495 261.12C986.095 261.856 985.895 262.712 985.895 263.688C985.895 264.664 986.095 265.528 986.495 266.28C986.911 267.016 987.471 267.592 988.175 268.008C988.895 268.408 989.703 268.608 990.599 268.608ZM1005.62 270.12C1004.4 270.12 1003.3 269.848 1002.33 269.304C1001.37 268.744 1000.61 267.984 1000.05 267.024C999.488 266.048 999.208 264.936 999.208 263.688C999.208 262.424 999.488 261.312 1000.05 260.352C1000.61 259.392 1001.37 258.64 1002.33 258.096C1003.29 257.552 1004.38 257.28 1005.62 257.28C1006.86 257.28 1007.97 257.552 1008.93 258.096C1009.9 258.64 1010.66 259.392 1011.21 260.352C1011.77 261.312 1012.05 262.424 1012.05 263.688C1012.05 264.936 1011.77 266.048 1011.21 267.024C1010.66 267.984 1009.9 268.744 1008.93 269.304C1007.95 269.848 1006.85 270.12 1005.62 270.12ZM1005.62 268.608C1006.53 268.608 1007.34 268.408 1008.04 268.008C1008.74 267.592 1009.3 267.016 1009.7 266.28C1010.11 265.528 1010.32 264.664 1010.32 263.688C1010.32 262.696 1010.11 261.832 1009.7 261.096C1009.3 260.36 1008.74 259.792 1008.04 259.392C1007.34 258.976 1006.54 258.768 1005.64 258.768C1004.74 258.768 1003.94 258.976 1003.24 259.392C1002.54 259.792 1001.98 260.36 1001.56 261.096C1001.14 261.832 1000.94 262.696 1000.94 263.688C1000.94 264.664 1001.14 265.528 1001.56 266.28C1001.98 267.016 1002.54 267.592 1003.24 268.008C1003.94 268.408 1004.74 268.608 1005.62 268.608ZM1018.91 270.12C1017.87 270.12 1016.89 269.976 1015.96 269.688C1015.03 269.384 1014.3 269.008 1013.78 268.56L1014.54 267.216C1015.06 267.6 1015.71 267.936 1016.51 268.224C1017.31 268.496 1018.15 268.632 1019.03 268.632C1020.23 268.632 1021.1 268.448 1021.62 268.08C1022.15 267.696 1022.42 267.192 1022.42 266.568C1022.42 266.104 1022.26 265.744 1021.96 265.488C1021.67 265.216 1021.29 265.016 1020.81 264.888C1020.33 264.744 1019.79 264.624 1019.2 264.528C1018.61 264.432 1018.02 264.32 1017.42 264.192C1016.85 264.064 1016.32 263.88 1015.84 263.64C1015.36 263.384 1014.97 263.04 1014.66 262.608C1014.38 262.176 1014.23 261.6 1014.23 260.88C1014.23 260.192 1014.42 259.576 1014.81 259.032C1015.19 258.488 1015.75 258.064 1016.49 257.76C1017.24 257.44 1018.15 257.28 1019.22 257.28C1020.04 257.28 1020.86 257.392 1021.67 257.616C1022.49 257.824 1023.16 258.104 1023.69 258.456L1022.94 259.824C1022.38 259.44 1021.78 259.168 1021.14 259.008C1020.5 258.832 1019.86 258.744 1019.22 258.744C1018.09 258.744 1017.25 258.944 1016.7 259.344C1016.18 259.728 1015.91 260.224 1015.91 260.832C1015.91 261.312 1016.06 261.688 1016.34 261.96C1016.65 262.232 1017.04 262.448 1017.52 262.608C1018.02 262.752 1018.55 262.872 1019.13 262.968C1019.72 263.064 1020.3 263.184 1020.88 263.328C1021.47 263.456 1022.01 263.64 1022.49 263.88C1022.98 264.104 1023.38 264.432 1023.66 264.864C1023.97 265.28 1024.12 265.832 1024.12 266.52C1024.12 267.256 1023.91 267.896 1023.5 268.44C1023.1 268.968 1022.5 269.384 1021.72 269.688C1020.95 269.976 1020.02 270.12 1018.91 270.12ZM1027.25 270V257.4H1028.95V270H1027.25ZM1028.11 254.616C1027.76 254.616 1027.46 254.496 1027.22 254.256C1026.98 254.016 1026.86 253.728 1026.86 253.392C1026.86 253.056 1026.98 252.776 1027.22 252.552C1027.46 252.312 1027.76 252.192 1028.11 252.192C1028.46 252.192 1028.76 252.304 1029 252.528C1029.24 252.752 1029.36 253.032 1029.36 253.368C1029.36 253.72 1029.24 254.016 1029 254.256C1028.77 254.496 1028.48 254.616 1028.11 254.616ZM1037.68 270.12C1036.49 270.12 1035.58 269.8 1034.94 269.16C1034.3 268.52 1033.98 267.616 1033.98 266.448V254.616H1035.68V266.352C1035.68 267.088 1035.87 267.656 1036.24 268.056C1036.62 268.456 1037.16 268.656 1037.87 268.656C1038.62 268.656 1039.24 268.44 1039.74 268.008L1040.34 269.232C1040 269.536 1039.6 269.76 1039.12 269.904C1038.65 270.048 1038.17 270.12 1037.68 270.12ZM1031.72 258.816V257.4H1039.52V258.816H1031.72ZM1043.44 270V257.4H1045.15V270H1043.44ZM1044.31 254.616C1043.95 254.616 1043.66 254.496 1043.42 254.256C1043.18 254.016 1043.06 253.728 1043.06 253.392C1043.06 253.056 1043.18 252.776 1043.42 252.552C1043.66 252.312 1043.95 252.192 1044.31 252.192C1044.66 252.192 1044.95 252.304 1045.19 252.528C1045.43 252.752 1045.55 253.032 1045.55 253.368C1045.55 253.72 1045.43 254.016 1045.19 254.256C1044.97 254.496 1044.67 254.616 1044.31 254.616ZM1055.02 270.12C1053.81 270.12 1052.71 269.848 1051.73 269.304C1050.77 268.744 1050.01 267.984 1049.45 267.024C1048.89 266.048 1048.61 264.936 1048.61 263.688C1048.61 262.424 1048.89 261.312 1049.45 260.352C1050.01 259.392 1050.77 258.64 1051.73 258.096C1052.69 257.552 1053.79 257.28 1055.02 257.28C1056.27 257.28 1057.37 257.552 1058.33 258.096C1059.31 258.64 1060.07 259.392 1060.61 260.352C1061.17 261.312 1061.45 262.424 1061.45 263.688C1061.45 264.936 1061.17 266.048 1060.61 267.024C1060.07 267.984 1059.31 268.744 1058.33 269.304C1057.36 269.848 1056.25 270.12 1055.02 270.12ZM1055.02 268.608C1055.93 268.608 1056.74 268.408 1057.45 268.008C1058.15 267.592 1058.7 267.016 1059.1 266.28C1059.52 265.528 1059.73 264.664 1059.73 263.688C1059.73 262.696 1059.52 261.832 1059.1 261.096C1058.7 260.36 1058.15 259.792 1057.45 259.392C1056.74 258.976 1055.94 258.768 1055.05 258.768C1054.15 258.768 1053.35 258.976 1052.65 259.392C1051.94 259.792 1051.38 260.36 1050.97 261.096C1050.55 261.832 1050.34 262.696 1050.34 263.688C1050.34 264.664 1050.55 265.528 1050.97 266.28C1051.38 267.016 1051.94 267.592 1052.65 268.008C1053.35 268.408 1054.14 268.608 1055.02 268.608ZM1071.37 257.28C1072.39 257.28 1073.29 257.48 1074.05 257.88C1074.84 258.264 1075.45 258.856 1075.88 259.656C1076.33 260.456 1076.55 261.464 1076.55 262.68V270H1074.85V262.848C1074.85 261.52 1074.51 260.52 1073.84 259.848C1073.18 259.16 1072.25 258.816 1071.05 258.816C1070.16 258.816 1069.37 259 1068.7 259.368C1068.05 259.72 1067.53 260.24 1067.17 260.928C1066.81 261.6 1066.64 262.416 1066.64 263.376V270H1064.93V257.4H1066.57V260.856L1066.3 260.208C1066.7 259.296 1067.34 258.584 1068.22 258.072C1069.1 257.544 1070.15 257.28 1071.37 257.28ZM1084.54 270.12C1083.5 270.12 1082.51 269.976 1081.58 269.688C1080.66 269.384 1079.93 269.008 1079.4 268.56L1080.17 267.216C1080.68 267.6 1081.34 267.936 1082.14 268.224C1082.94 268.496 1083.78 268.632 1084.66 268.632C1085.86 268.632 1086.72 268.448 1087.25 268.08C1087.78 267.696 1088.04 267.192 1088.04 266.568C1088.04 266.104 1087.89 265.744 1087.58 265.488C1087.3 265.216 1086.91 265.016 1086.43 264.888C1085.95 264.744 1085.42 264.624 1084.82 264.528C1084.23 264.432 1083.64 264.32 1083.05 264.192C1082.47 264.064 1081.94 263.88 1081.46 263.64C1080.98 263.384 1080.59 263.04 1080.29 262.608C1080 262.176 1079.86 261.6 1079.86 260.88C1079.86 260.192 1080.05 259.576 1080.43 259.032C1080.82 258.488 1081.38 258.064 1082.11 257.76C1082.86 257.44 1083.78 257.28 1084.85 257.28C1085.66 257.28 1086.48 257.392 1087.3 257.616C1088.11 257.824 1088.78 258.104 1089.31 258.456L1088.57 259.824C1088.01 259.44 1087.41 259.168 1086.77 259.008C1086.13 258.832 1085.49 258.744 1084.85 258.744C1083.71 258.744 1082.87 258.944 1082.33 259.344C1081.8 259.728 1081.54 260.224 1081.54 260.832C1081.54 261.312 1081.68 261.688 1081.97 261.96C1082.27 262.232 1082.66 262.448 1083.14 262.608C1083.64 262.752 1084.18 262.872 1084.75 262.968C1085.34 263.064 1085.93 263.184 1086.5 263.328C1087.1 263.456 1087.63 263.64 1088.11 263.88C1088.61 264.104 1089 264.432 1089.29 264.864C1089.59 265.28 1089.74 265.832 1089.74 266.52C1089.74 267.256 1089.54 267.896 1089.12 268.44C1088.72 268.968 1088.13 269.384 1087.34 269.688C1086.58 269.976 1085.64 270.12 1084.54 270.12ZM1093.04 270.12C1092.69 270.12 1092.38 269.992 1092.13 269.736C1091.89 269.48 1091.77 269.168 1091.77 268.8C1091.77 268.416 1091.89 268.104 1092.13 267.864C1092.38 267.624 1092.69 267.504 1093.04 267.504C1093.39 267.504 1093.69 267.624 1093.93 267.864C1094.18 268.104 1094.31 268.416 1094.31 268.8C1094.31 269.168 1094.18 269.48 1093.93 269.736C1093.69 269.992 1093.39 270.12 1093.04 270.12ZM1111.89 270.144C1110.63 270.144 1109.46 269.936 1108.39 269.52C1107.32 269.088 1106.39 268.488 1105.61 267.72C1104.82 266.952 1104.21 266.048 1103.76 265.008C1103.33 263.968 1103.11 262.832 1103.11 261.6C1103.11 260.368 1103.33 259.232 1103.76 258.192C1104.21 257.152 1104.82 256.248 1105.61 255.48C1106.41 254.712 1107.34 254.12 1108.41 253.704C1109.49 253.272 1110.65 253.056 1111.92 253.056C1113.13 253.056 1114.28 253.264 1115.35 253.68C1116.42 254.08 1117.33 254.688 1118.06 255.504L1116.93 256.632C1116.25 255.928 1115.49 255.424 1114.65 255.12C1113.82 254.8 1112.93 254.64 1111.97 254.64C1110.96 254.64 1110.02 254.816 1109.16 255.168C1108.29 255.504 1107.54 255.992 1106.9 256.632C1106.26 257.256 1105.76 257.992 1105.39 258.84C1105.04 259.672 1104.86 260.592 1104.86 261.6C1104.86 262.608 1105.04 263.536 1105.39 264.384C1105.76 265.216 1106.26 265.952 1106.9 266.592C1107.54 267.216 1108.29 267.704 1109.16 268.056C1110.02 268.392 1110.96 268.56 1111.97 268.56C1112.93 268.56 1113.82 268.4 1114.65 268.08C1115.49 267.76 1116.25 267.248 1116.93 266.544L1118.06 267.672C1117.33 268.488 1116.42 269.104 1115.35 269.52C1114.28 269.936 1113.13 270.144 1111.89 270.144ZM1126.06 270.12C1124.85 270.12 1123.75 269.848 1122.77 269.304C1121.81 268.744 1121.05 267.984 1120.49 267.024C1119.93 266.048 1119.65 264.936 1119.65 263.688C1119.65 262.424 1119.93 261.312 1120.49 260.352C1121.05 259.392 1121.81 258.64 1122.77 258.096C1123.73 257.552 1124.83 257.28 1126.06 257.28C1127.31 257.28 1128.41 257.552 1129.37 258.096C1130.35 258.64 1131.11 259.392 1131.65 260.352C1132.21 261.312 1132.49 262.424 1132.49 263.688C1132.49 264.936 1132.21 266.048 1131.65 267.024C1131.11 267.984 1130.35 268.744 1129.37 269.304C1128.4 269.848 1127.29 270.12 1126.06 270.12ZM1126.06 268.608C1126.97 268.608 1127.78 268.408 1128.49 268.008C1129.19 267.592 1129.74 267.016 1130.14 266.28C1130.56 265.528 1130.77 264.664 1130.77 263.688C1130.77 262.696 1130.56 261.832 1130.14 261.096C1129.74 260.36 1129.19 259.792 1128.49 259.392C1127.78 258.976 1126.98 258.768 1126.09 258.768C1125.19 258.768 1124.39 258.976 1123.69 259.392C1122.98 259.792 1122.42 260.36 1122.01 261.096C1121.59 261.832 1121.38 262.696 1121.38 263.688C1121.38 264.664 1121.59 265.528 1122.01 266.28C1122.42 267.016 1122.98 267.592 1123.69 268.008C1124.39 268.408 1125.18 268.608 1126.06 268.608ZM1142.4 257.28C1143.43 257.28 1144.32 257.48 1145.09 257.88C1145.88 258.264 1146.48 258.856 1146.92 259.656C1147.36 260.456 1147.59 261.464 1147.59 262.68V270H1145.88V262.848C1145.88 261.52 1145.55 260.52 1144.88 259.848C1144.22 259.16 1143.29 258.816 1142.09 258.816C1141.2 258.816 1140.41 259 1139.74 259.368C1139.08 259.72 1138.57 260.24 1138.2 260.928C1137.85 261.6 1137.68 262.416 1137.68 263.376V270H1135.97V257.4H1137.6V260.856L1137.34 260.208C1137.74 259.296 1138.38 258.584 1139.26 258.072C1140.14 257.544 1141.19 257.28 1142.4 257.28ZM1156.18 270.12C1154.99 270.12 1154.08 269.8 1153.44 269.16C1152.8 268.52 1152.48 267.616 1152.48 266.448V254.616H1154.18V266.352C1154.18 267.088 1154.37 267.656 1154.74 268.056C1155.12 268.456 1155.66 268.656 1156.37 268.656C1157.12 268.656 1157.74 268.44 1158.24 268.008L1158.84 269.232C1158.5 269.536 1158.1 269.76 1157.62 269.904C1157.15 270.048 1156.67 270.12 1156.18 270.12ZM1150.22 258.816V257.4H1158.02V258.816H1150.22ZM1169.84 270V267.216L1169.77 266.76V262.104C1169.77 261.032 1169.46 260.208 1168.85 259.632C1168.26 259.056 1167.37 258.768 1166.19 258.768C1165.37 258.768 1164.6 258.904 1163.86 259.176C1163.13 259.448 1162.5 259.808 1161.99 260.256L1161.22 258.984C1161.86 258.44 1162.63 258.024 1163.53 257.736C1164.42 257.432 1165.37 257.28 1166.36 257.28C1167.99 257.28 1169.25 257.688 1170.13 258.504C1171.02 259.304 1171.47 260.528 1171.47 262.176V270H1169.84ZM1165.49 270.12C1164.55 270.12 1163.73 269.968 1163.02 269.664C1162.33 269.344 1161.81 268.912 1161.44 268.368C1161.07 267.808 1160.89 267.168 1160.89 266.448C1160.89 265.792 1161.04 265.2 1161.34 264.672C1161.66 264.128 1162.17 263.696 1162.88 263.376C1163.6 263.04 1164.56 262.872 1165.76 262.872H1170.1V264.144H1165.81C1164.59 264.144 1163.74 264.36 1163.26 264.792C1162.8 265.224 1162.57 265.76 1162.57 266.4C1162.57 267.12 1162.85 267.696 1163.41 268.128C1163.97 268.56 1164.75 268.776 1165.76 268.776C1166.72 268.776 1167.54 268.56 1168.23 268.128C1168.93 267.68 1169.45 267.04 1169.77 266.208L1170.15 267.384C1169.83 268.216 1169.27 268.88 1168.47 269.376C1167.69 269.872 1166.69 270.12 1165.49 270.12ZM1181.33 270.12C1180.08 270.12 1178.96 269.848 1177.97 269.304C1176.99 268.744 1176.23 267.984 1175.67 267.024C1175.11 266.048 1174.83 264.936 1174.83 263.688C1174.83 262.424 1175.11 261.312 1175.67 260.352C1176.23 259.392 1176.99 258.64 1177.97 258.096C1178.96 257.552 1180.08 257.28 1181.33 257.28C1182.4 257.28 1183.37 257.488 1184.23 257.904C1185.1 258.32 1185.78 258.944 1186.27 259.776L1185 260.64C1184.57 260 1184.03 259.528 1183.39 259.224C1182.75 258.92 1182.06 258.768 1181.31 258.768C1180.41 258.768 1179.6 258.976 1178.88 259.392C1178.16 259.792 1177.59 260.36 1177.18 261.096C1176.76 261.832 1176.55 262.696 1176.55 263.688C1176.55 264.68 1176.76 265.544 1177.18 266.28C1177.59 267.016 1178.16 267.592 1178.88 268.008C1179.6 268.408 1180.41 268.608 1181.31 268.608C1182.06 268.608 1182.75 268.456 1183.39 268.152C1184.03 267.848 1184.57 267.384 1185 266.76L1186.27 267.624C1185.78 268.44 1185.1 269.064 1184.23 269.496C1183.37 269.912 1182.4 270.12 1181.33 270.12ZM1193.75 270.12C1192.56 270.12 1191.65 269.8 1191.01 269.16C1190.37 268.52 1190.05 267.616 1190.05 266.448V254.616H1191.75V266.352C1191.75 267.088 1191.94 267.656 1192.31 268.056C1192.69 268.456 1193.23 268.656 1193.94 268.656C1194.69 268.656 1195.31 268.44 1195.81 268.008L1196.41 269.232C1196.07 269.536 1195.67 269.76 1195.19 269.904C1194.72 270.048 1194.24 270.12 1193.75 270.12ZM1187.79 258.816V257.4H1195.59V258.816H1187.79ZM1221.54 257.28C1222.56 257.28 1223.45 257.48 1224.2 257.88C1224.97 258.264 1225.56 258.856 1225.98 259.656C1226.41 260.456 1226.62 261.464 1226.62 262.68V270H1224.92V262.848C1224.92 261.52 1224.6 260.52 1223.96 259.848C1223.34 259.16 1222.45 258.816 1221.3 258.816C1220.43 258.816 1219.68 259 1219.04 259.368C1218.42 259.72 1217.93 260.24 1217.58 260.928C1217.24 261.6 1217.07 262.416 1217.07 263.376V270H1215.37V262.848C1215.37 261.52 1215.05 260.52 1214.41 259.848C1213.77 259.16 1212.87 258.816 1211.72 258.816C1210.87 258.816 1210.13 259 1209.49 259.368C1208.85 259.72 1208.35 260.24 1208 260.928C1207.66 261.6 1207.5 262.416 1207.5 263.376V270H1205.79V257.4H1207.42V260.808L1207.16 260.208C1207.54 259.296 1208.16 258.584 1209.01 258.072C1209.87 257.544 1210.89 257.28 1212.06 257.28C1213.29 257.28 1214.34 257.592 1215.2 258.216C1216.06 258.824 1216.62 259.744 1216.88 260.976L1216.21 260.712C1216.58 259.688 1217.22 258.864 1218.15 258.24C1219.1 257.6 1220.22 257.28 1221.54 257.28ZM1236.6 270.12C1235.29 270.12 1234.13 269.848 1233.14 269.304C1232.15 268.744 1231.37 267.984 1230.81 267.024C1230.25 266.048 1229.97 264.936 1229.97 263.688C1229.97 262.44 1230.24 261.336 1230.77 260.376C1231.31 259.416 1232.05 258.664 1232.97 258.12C1233.92 257.56 1234.97 257.28 1236.14 257.28C1237.33 257.28 1238.37 257.552 1239.29 258.096C1240.21 258.624 1240.94 259.376 1241.47 260.352C1242 261.312 1242.26 262.424 1242.26 263.688C1242.26 263.768 1242.25 263.856 1242.24 263.952C1242.24 264.032 1242.24 264.12 1242.24 264.216H1231.27V262.944H1241.33L1240.65 263.448C1240.65 262.536 1240.45 261.728 1240.05 261.024C1239.67 260.304 1239.14 259.744 1238.47 259.344C1237.8 258.944 1237.02 258.744 1236.14 258.744C1235.28 258.744 1234.5 258.944 1233.81 259.344C1233.13 259.744 1232.59 260.304 1232.21 261.024C1231.82 261.744 1231.63 262.568 1231.63 263.496V263.76C1231.63 264.72 1231.84 265.568 1232.25 266.304C1232.69 267.024 1233.28 267.592 1234.03 268.008C1234.8 268.408 1235.67 268.608 1236.65 268.608C1237.41 268.608 1238.13 268.472 1238.78 268.2C1239.45 267.928 1240.03 267.512 1240.51 266.952L1241.47 268.056C1240.91 268.728 1240.21 269.24 1239.36 269.592C1238.53 269.944 1237.61 270.12 1236.6 270.12ZM1259.91 270V267.216L1259.84 266.76V262.104C1259.84 261.032 1259.53 260.208 1258.92 259.632C1258.33 259.056 1257.44 258.768 1256.26 258.768C1255.44 258.768 1254.67 258.904 1253.93 259.176C1253.2 259.448 1252.57 259.808 1252.06 260.256L1251.29 258.984C1251.93 258.44 1252.7 258.024 1253.6 257.736C1254.49 257.432 1255.44 257.28 1256.43 257.28C1258.06 257.28 1259.32 257.688 1260.2 258.504C1261.09 259.304 1261.54 260.528 1261.54 262.176V270H1259.91ZM1255.56 270.12C1254.62 270.12 1253.8 269.968 1253.09 269.664C1252.4 269.344 1251.88 268.912 1251.51 268.368C1251.14 267.808 1250.96 267.168 1250.96 266.448C1250.96 265.792 1251.11 265.2 1251.41 264.672C1251.73 264.128 1252.24 263.696 1252.95 263.376C1253.67 263.04 1254.63 262.872 1255.83 262.872H1260.17V264.144H1255.88C1254.66 264.144 1253.81 264.36 1253.33 264.792C1252.87 265.224 1252.64 265.76 1252.64 266.4C1252.64 267.12 1252.92 267.696 1253.48 268.128C1254.04 268.56 1254.82 268.776 1255.83 268.776C1256.79 268.776 1257.61 268.56 1258.3 268.128C1259 267.68 1259.52 267.04 1259.84 266.208L1260.22 267.384C1259.9 268.216 1259.34 268.88 1258.54 269.376C1257.76 269.872 1256.76 270.12 1255.56 270.12ZM1272.6 257.28C1273.62 257.28 1274.52 257.48 1275.29 257.88C1276.07 258.264 1276.68 258.856 1277.11 259.656C1277.56 260.456 1277.78 261.464 1277.78 262.68V270H1276.08V262.848C1276.08 261.52 1275.74 260.52 1275.07 259.848C1274.42 259.16 1273.49 258.816 1272.29 258.816C1271.39 258.816 1270.61 259 1269.94 259.368C1269.28 259.72 1268.77 260.24 1268.4 260.928C1268.05 261.6 1267.87 262.416 1267.87 263.376V270H1266.17V257.4H1267.8V260.856L1267.54 260.208C1267.94 259.296 1268.58 258.584 1269.46 258.072C1270.34 257.544 1271.38 257.28 1272.6 257.28ZM1287.4 270.12C1286.2 270.12 1285.12 269.848 1284.16 269.304C1283.22 268.76 1282.47 268.008 1281.93 267.048C1281.39 266.072 1281.11 264.952 1281.11 263.688C1281.11 262.408 1281.39 261.288 1281.93 260.328C1282.47 259.368 1283.22 258.624 1284.16 258.096C1285.12 257.552 1286.2 257.28 1287.4 257.28C1288.51 257.28 1289.49 257.528 1290.35 258.024C1291.23 258.52 1291.93 259.248 1292.44 260.208C1292.97 261.152 1293.23 262.312 1293.23 263.688C1293.23 265.048 1292.98 266.208 1292.47 267.168C1291.95 268.128 1291.26 268.864 1290.38 269.376C1289.51 269.872 1288.52 270.12 1287.4 270.12ZM1287.52 268.608C1288.42 268.608 1289.22 268.408 1289.92 268.008C1290.64 267.592 1291.2 267.016 1291.6 266.28C1292.02 265.528 1292.23 264.664 1292.23 263.688C1292.23 262.696 1292.02 261.832 1291.6 261.096C1291.2 260.36 1290.64 259.792 1289.92 259.392C1289.22 258.976 1288.42 258.768 1287.52 258.768C1286.64 258.768 1285.85 258.976 1285.15 259.392C1284.44 259.792 1283.88 260.36 1283.47 261.096C1283.05 261.832 1282.84 262.696 1282.84 263.688C1282.84 264.664 1283.05 265.528 1283.47 266.28C1283.88 267.016 1284.44 267.592 1285.15 268.008C1285.85 268.408 1286.64 268.608 1287.52 268.608ZM1292.27 270V266.208L1292.44 263.664L1292.2 261.12V252.192H1293.91V270H1292.27ZM1304.93 270V252.192H1306.64V270H1304.93ZM1316.73 270.12C1315.42 270.12 1314.27 269.848 1313.27 269.304C1312.28 268.744 1311.51 267.984 1310.95 267.024C1310.39 266.048 1310.11 264.936 1310.11 263.688C1310.11 262.44 1310.37 261.336 1310.9 260.376C1311.44 259.416 1312.18 258.664 1313.11 258.12C1314.05 257.56 1315.11 257.28 1316.27 257.28C1317.46 257.28 1318.51 257.552 1319.42 258.096C1320.35 258.624 1321.07 259.376 1321.6 260.352C1322.13 261.312 1322.39 262.424 1322.39 263.688C1322.39 263.768 1322.39 263.856 1322.37 263.952C1322.37 264.032 1322.37 264.12 1322.37 264.216H1311.4V262.944H1321.46L1320.79 263.448C1320.79 262.536 1320.59 261.728 1320.19 261.024C1319.8 260.304 1319.27 259.744 1318.6 259.344C1317.93 258.944 1317.15 258.744 1316.27 258.744C1315.41 258.744 1314.63 258.944 1313.95 259.344C1313.26 259.744 1312.72 260.304 1312.34 261.024C1311.95 261.744 1311.76 262.568 1311.76 263.496V263.76C1311.76 264.72 1311.97 265.568 1312.39 266.304C1312.82 267.024 1313.41 267.592 1314.16 268.008C1314.93 268.408 1315.8 268.608 1316.78 268.608C1317.55 268.608 1318.26 268.472 1318.91 268.2C1319.59 267.928 1320.16 267.512 1320.64 266.952L1321.6 268.056C1321.04 268.728 1320.34 269.24 1319.49 269.592C1318.66 269.944 1317.74 270.12 1316.73 270.12ZM1329.85 270.12C1328.66 270.12 1327.75 269.8 1327.11 269.16C1326.47 268.52 1326.15 267.616 1326.15 266.448V254.616H1327.85V266.352C1327.85 267.088 1328.04 267.656 1328.41 268.056C1328.79 268.456 1329.33 268.656 1330.04 268.656C1330.79 268.656 1331.41 268.44 1331.91 268.008L1332.51 269.232C1332.17 269.536 1331.77 269.76 1331.29 269.904C1330.82 270.048 1330.34 270.12 1329.85 270.12ZM1323.89 258.816V257.4H1331.69V258.816H1323.89ZM1335.01 259.536L1334.89 253.2H1336.4L1336.28 259.536H1335.01ZM1343.85 270.12C1342.81 270.12 1341.82 269.976 1340.9 269.688C1339.97 269.384 1339.24 269.008 1338.71 268.56L1339.48 267.216C1339.99 267.6 1340.65 267.936 1341.45 268.224C1342.25 268.496 1343.09 268.632 1343.97 268.632C1345.17 268.632 1346.03 268.448 1346.56 268.08C1347.09 267.696 1347.35 267.192 1347.35 266.568C1347.35 266.104 1347.2 265.744 1346.9 265.488C1346.61 265.216 1346.22 265.016 1345.74 264.888C1345.26 264.744 1344.73 264.624 1344.14 264.528C1343.54 264.432 1342.95 264.32 1342.36 264.192C1341.78 264.064 1341.26 263.88 1340.78 263.64C1340.3 263.384 1339.9 263.04 1339.6 262.608C1339.31 262.176 1339.17 261.6 1339.17 260.88C1339.17 260.192 1339.36 259.576 1339.74 259.032C1340.13 258.488 1340.69 258.064 1341.42 257.76C1342.18 257.44 1343.09 257.28 1344.16 257.28C1344.98 257.28 1345.79 257.392 1346.61 257.616C1347.42 257.824 1348.1 258.104 1348.62 258.456L1347.88 259.824C1347.32 259.44 1346.72 259.168 1346.08 259.008C1345.44 258.832 1344.8 258.744 1344.16 258.744C1343.02 258.744 1342.18 258.944 1341.64 259.344C1341.11 259.728 1340.85 260.224 1340.85 260.832C1340.85 261.312 1340.99 261.688 1341.28 261.96C1341.58 262.232 1341.98 262.448 1342.46 262.608C1342.95 262.752 1343.49 262.872 1344.06 262.968C1344.66 263.064 1345.24 263.184 1345.82 263.328C1346.41 263.456 1346.94 263.64 1347.42 263.88C1347.92 264.104 1348.31 264.432 1348.6 264.864C1348.9 265.28 1349.06 265.832 1349.06 266.52C1349.06 267.256 1348.85 267.896 1348.43 268.44C1348.03 268.968 1347.44 269.384 1346.66 269.688C1345.89 269.976 1344.95 270.12 1343.85 270.12ZM1362.45 270.12C1361.26 270.12 1360.35 269.8 1359.71 269.16C1359.07 268.52 1358.75 267.616 1358.75 266.448V254.616H1360.46V266.352C1360.46 267.088 1360.64 267.656 1361.01 268.056C1361.39 268.456 1361.94 268.656 1362.64 268.656C1363.39 268.656 1364.02 268.44 1364.51 268.008L1365.11 269.232C1364.78 269.536 1364.37 269.76 1363.89 269.904C1363.42 270.048 1362.94 270.12 1362.45 270.12ZM1356.5 258.816V257.4H1364.3V258.816H1356.5ZM1376.11 270V267.216L1376.04 266.76V262.104C1376.04 261.032 1375.73 260.208 1375.13 259.632C1374.53 259.056 1373.65 258.768 1372.46 258.768C1371.65 258.768 1370.87 258.904 1370.13 259.176C1369.4 259.448 1368.77 259.808 1368.26 260.256L1367.49 258.984C1368.13 258.44 1368.9 258.024 1369.8 257.736C1370.69 257.432 1371.64 257.28 1372.63 257.28C1374.26 257.28 1375.52 257.688 1376.4 258.504C1377.29 259.304 1377.74 260.528 1377.74 262.176V270H1376.11ZM1371.77 270.12C1370.82 270.12 1370 269.968 1369.29 269.664C1368.61 269.344 1368.08 268.912 1367.71 268.368C1367.34 267.808 1367.16 267.168 1367.16 266.448C1367.16 265.792 1367.31 265.2 1367.61 264.672C1367.93 264.128 1368.45 263.696 1369.15 263.376C1369.87 263.04 1370.83 262.872 1372.03 262.872H1376.37V264.144H1372.08C1370.86 264.144 1370.01 264.36 1369.53 264.792C1369.07 265.224 1368.84 265.76 1368.84 266.4C1368.84 267.12 1369.12 267.696 1369.68 268.128C1370.24 268.56 1371.02 268.776 1372.03 268.776C1372.99 268.776 1373.81 268.56 1374.5 268.128C1375.21 267.68 1375.72 267.04 1376.04 266.208L1376.42 267.384C1376.1 268.216 1375.54 268.88 1374.74 269.376C1373.96 269.872 1372.97 270.12 1371.77 270.12ZM1382.37 270V252.192H1384.07V270H1382.37ZM1390.16 266.736L1390.21 264.552L1398.06 257.4H1400.14L1394.6 262.704L1393.64 263.52L1390.16 266.736ZM1388.82 270V252.192H1390.52V270H1388.82ZM1398.58 270L1393.33 263.448L1394.43 262.128L1400.67 270H1398.58ZM1403.63 270.12C1403.28 270.12 1402.98 269.992 1402.72 269.736C1402.48 269.48 1402.36 269.168 1402.36 268.8C1402.36 268.416 1402.48 268.104 1402.72 267.864C1402.98 267.624 1403.28 267.504 1403.63 267.504C1403.98 267.504 1404.28 267.624 1404.52 267.864C1404.78 268.104 1404.9 268.416 1404.9 268.8C1404.9 269.168 1404.78 269.48 1404.52 269.736C1404.28 269.992 1403.98 270.12 1403.63 270.12Z" fill="#272341"/>
<mask id="path-4-inside-1_3_173" fill="white">
<path d="M832.22 304H1088.22V348H832.22V304Z"/>
</mask>
<path d="M832.22 304V302H830.22V304H832.22ZM1088.22 304H1090.22V302H1088.22V304ZM1088.22 348V350H1090.22V348H1088.22ZM832.22 348H830.22V350H832.22V348ZM832.22 304V306H1088.22V304V302H832.22V304ZM1088.22 304H1086.22V348H1088.22H1090.22V304H1088.22ZM1088.22 348V346H832.22V348V350H1088.22V348ZM832.22 348H834.22V304H832.22H830.22V348H832.22Z" fill="#272341" mask="url(#path-4-inside-1_3_173)"/>
<path d="M860.365 335.288C859.069 335.288 857.861 335.08 856.741 334.664C855.637 334.232 854.677 333.624 853.861 332.84C853.045 332.056 852.405 331.136 851.941 330.08C851.493 329.024 851.269 327.864 851.269 326.6C851.269 325.336 851.493 324.176 851.941 323.12C852.405 322.064 853.045 321.144 853.861 320.36C854.693 319.576 855.661 318.976 856.765 318.56C857.869 318.128 859.077 317.912 860.389 317.912C861.845 317.912 863.157 318.168 864.325 318.68C865.509 319.176 866.501 319.912 867.301 320.888L864.805 323.192C864.229 322.536 863.589 322.048 862.885 321.728C862.181 321.392 861.413 321.224 860.581 321.224C859.797 321.224 859.077 321.352 858.421 321.608C857.765 321.864 857.197 322.232 856.717 322.712C856.237 323.192 855.861 323.76 855.589 324.416C855.333 325.072 855.205 325.8 855.205 326.6C855.205 327.4 855.333 328.128 855.589 328.784C855.861 329.44 856.237 330.008 856.717 330.488C857.197 330.968 857.765 331.336 858.421 331.592C859.077 331.848 859.797 331.976 860.581 331.976C861.413 331.976 862.181 331.816 862.885 331.496C863.589 331.16 864.229 330.656 864.805 329.984L867.301 332.288C866.501 333.264 865.509 334.008 864.325 334.52C863.157 335.032 861.837 335.288 860.365 335.288ZM875.362 335.192C873.986 335.192 872.762 334.904 871.69 334.328C870.634 333.752 869.794 332.968 869.17 331.976C868.562 330.968 868.258 329.824 868.258 328.544C868.258 327.248 868.562 326.104 869.17 325.112C869.794 324.104 870.634 323.32 871.69 322.76C872.762 322.184 873.986 321.896 875.362 321.896C876.722 321.896 877.938 322.184 879.01 322.76C880.082 323.32 880.922 324.096 881.53 325.088C882.138 326.08 882.442 327.232 882.442 328.544C882.442 329.824 882.138 330.968 881.53 331.976C880.922 332.968 880.082 333.752 879.01 334.328C877.938 334.904 876.722 335.192 875.362 335.192ZM875.362 332.12C875.986 332.12 876.546 331.976 877.042 331.688C877.538 331.4 877.93 330.992 878.218 330.464C878.506 329.92 878.65 329.28 878.65 328.544C878.65 327.792 878.506 327.152 878.218 326.624C877.93 326.096 877.538 325.688 877.042 325.4C876.546 325.112 875.986 324.968 875.362 324.968C874.738 324.968 874.178 325.112 873.682 325.4C873.186 325.688 872.786 326.096 872.482 326.624C872.194 327.152 872.05 327.792 872.05 328.544C872.05 329.28 872.194 329.92 872.482 330.464C872.786 330.992 873.186 331.4 873.682 331.688C874.178 331.976 874.738 332.12 875.362 332.12ZM892.792 321.896C893.816 321.896 894.728 322.104 895.528 322.52C896.344 322.92 896.984 323.544 897.448 324.392C897.912 325.224 898.144 326.296 898.144 327.608V335H894.4V328.184C894.4 327.144 894.168 326.376 893.704 325.88C893.256 325.384 892.616 325.136 891.784 325.136C891.192 325.136 890.656 325.264 890.176 325.52C889.712 325.76 889.344 326.136 889.072 326.648C888.816 327.16 888.688 327.816 888.688 328.616V335H884.944V322.088H888.52V325.664L887.848 324.584C888.312 323.72 888.976 323.056 889.84 322.592C890.704 322.128 891.688 321.896 892.792 321.896ZM909.386 321.896C910.41 321.896 911.322 322.104 912.122 322.52C912.938 322.92 913.578 323.544 914.042 324.392C914.506 325.224 914.738 326.296 914.738 327.608V335H910.994V328.184C910.994 327.144 910.762 326.376 910.298 325.88C909.85 325.384 909.21 325.136 908.378 325.136C907.786 325.136 907.25 325.264 906.77 325.52C906.306 325.76 905.938 326.136 905.666 326.648C905.41 327.16 905.282 327.816 905.282 328.616V335H901.538V322.088H905.114V325.664L904.442 324.584C904.906 323.72 905.57 323.056 906.434 322.592C907.298 322.128 908.282 321.896 909.386 321.896ZM924.633 335.192C923.161 335.192 921.865 334.904 920.745 334.328C919.641 333.752 918.785 332.968 918.177 331.976C917.569 330.968 917.265 329.824 917.265 328.544C917.265 327.248 917.561 326.104 918.153 325.112C918.761 324.104 919.585 323.32 920.625 322.76C921.665 322.184 922.841 321.896 924.153 321.896C925.417 321.896 926.553 322.168 927.561 322.712C928.585 323.24 929.393 324.008 929.985 325.016C930.577 326.008 930.873 327.2 930.873 328.592C930.873 328.736 930.865 328.904 930.849 329.096C930.833 329.272 930.817 329.44 930.801 329.6H920.313V327.416H928.833L927.393 328.064C927.393 327.392 927.257 326.808 926.985 326.312C926.713 325.816 926.337 325.432 925.857 325.16C925.377 324.872 924.817 324.728 924.177 324.728C923.537 324.728 922.969 324.872 922.473 325.16C921.993 325.432 921.617 325.824 921.345 326.336C921.073 326.832 920.937 327.424 920.937 328.112V328.688C920.937 329.392 921.089 330.016 921.393 330.56C921.713 331.088 922.153 331.496 922.713 331.784C923.289 332.056 923.961 332.192 924.729 332.192C925.417 332.192 926.017 332.088 926.529 331.88C927.057 331.672 927.537 331.36 927.969 330.944L929.961 333.104C929.369 333.776 928.625 334.296 927.729 334.664C926.833 335.016 925.801 335.192 924.633 335.192ZM939.606 335.192C938.214 335.192 936.974 334.912 935.886 334.352C934.798 333.776 933.942 332.984 933.318 331.976C932.71 330.968 932.406 329.824 932.406 328.544C932.406 327.248 932.71 326.104 933.318 325.112C933.942 324.104 934.798 323.32 935.886 322.76C936.974 322.184 938.214 321.896 939.606 321.896C940.966 321.896 942.15 322.184 943.158 322.76C944.166 323.32 944.91 324.128 945.39 325.184L942.486 326.744C942.15 326.136 941.726 325.688 941.214 325.4C940.718 325.112 940.174 324.968 939.582 324.968C938.942 324.968 938.366 325.112 937.854 325.4C937.342 325.688 936.934 326.096 936.63 326.624C936.342 327.152 936.198 327.792 936.198 328.544C936.198 329.296 936.342 329.936 936.63 330.464C936.934 330.992 937.342 331.4 937.854 331.688C938.366 331.976 938.942 332.12 939.582 332.12C940.174 332.12 940.718 331.984 941.214 331.712C941.726 331.424 942.15 330.968 942.486 330.344L945.39 331.928C944.91 332.968 944.166 333.776 943.158 334.352C942.15 334.912 940.966 335.192 939.606 335.192ZM953.013 335.192C951.493 335.192 950.309 334.808 949.461 334.04C948.613 333.256 948.189 332.096 948.189 330.56V319.232H951.933V330.512C951.933 331.056 952.077 331.48 952.365 331.784C952.653 332.072 953.045 332.216 953.541 332.216C954.133 332.216 954.637 332.056 955.053 331.736L956.061 334.376C955.677 334.648 955.213 334.856 954.669 335C954.141 335.128 953.589 335.192 953.013 335.192ZM946.197 325.256V322.376H955.149V325.256H946.197ZM969.256 335L963.76 318.2H967.792L972.568 333.08H970.552L975.544 318.2H979.144L983.944 333.08H982L986.896 318.2H990.616L985.12 335H980.944L976.696 321.944H977.8L973.432 335H969.256ZM992.733 335V322.088H996.477V335H992.733ZM994.605 320.288C993.917 320.288 993.357 320.088 992.925 319.688C992.493 319.288 992.277 318.792 992.277 318.2C992.277 317.608 992.493 317.112 992.925 316.712C993.357 316.312 993.917 316.112 994.605 316.112C995.293 316.112 995.853 316.304 996.285 316.688C996.717 317.056 996.933 317.536 996.933 318.128C996.933 318.752 996.717 319.272 996.285 319.688C995.869 320.088 995.309 320.288 994.605 320.288ZM1005.23 335.192C1003.71 335.192 1002.53 334.808 1001.68 334.04C1000.83 333.256 1000.41 332.096 1000.41 330.56V319.232H1004.15V330.512C1004.15 331.056 1004.3 331.48 1004.58 331.784C1004.87 332.072 1005.26 332.216 1005.76 332.216C1006.35 332.216 1006.86 332.056 1007.27 331.736L1008.28 334.376C1007.9 334.648 1007.43 334.856 1006.89 335C1006.36 335.128 1005.81 335.192 1005.23 335.192ZM998.416 325.256V322.376H1007.37V325.256H998.416ZM1018.23 321.896C1019.25 321.896 1020.17 322.104 1020.97 322.52C1021.78 322.92 1022.42 323.544 1022.89 324.392C1023.35 325.224 1023.58 326.296 1023.58 327.608V335H1019.84V328.184C1019.84 327.144 1019.61 326.376 1019.14 325.88C1018.69 325.384 1018.05 325.136 1017.22 325.136C1016.63 325.136 1016.09 325.264 1015.61 325.52C1015.15 325.76 1014.78 326.136 1014.51 326.648C1014.25 327.16 1014.13 327.816 1014.13 328.616V335H1010.38V317.192H1014.13V325.664L1013.29 324.584C1013.75 323.72 1014.41 323.056 1015.28 322.592C1016.14 322.128 1017.13 321.896 1018.23 321.896ZM1034.04 335V318.2H1037.25L1044.4 330.056H1042.7L1049.73 318.2H1052.92L1052.97 335H1049.32L1049.3 323.792H1049.97L1044.36 333.224H1042.6L1036.87 323.792H1037.68V335H1034.04ZM1063.1 335.192C1061.63 335.192 1060.33 334.904 1059.21 334.328C1058.11 333.752 1057.25 332.968 1056.65 331.976C1056.04 330.968 1055.73 329.824 1055.73 328.544C1055.73 327.248 1056.03 326.104 1056.62 325.112C1057.23 324.104 1058.05 323.32 1059.09 322.76C1060.13 322.184 1061.31 321.896 1062.62 321.896C1063.89 321.896 1065.02 322.168 1066.03 322.712C1067.05 323.24 1067.86 324.008 1068.45 325.016C1069.05 326.008 1069.34 327.2 1069.34 328.592C1069.34 328.736 1069.33 328.904 1069.32 329.096C1069.3 329.272 1069.29 329.44 1069.27 329.6H1058.78V327.416H1067.3L1065.86 328.064C1065.86 327.392 1065.73 326.808 1065.45 326.312C1065.18 325.816 1064.81 325.432 1064.33 325.16C1063.85 324.872 1063.29 324.728 1062.65 324.728C1062.01 324.728 1061.44 324.872 1060.94 325.16C1060.46 325.432 1060.09 325.824 1059.81 326.336C1059.54 326.832 1059.41 327.424 1059.41 328.112V328.688C1059.41 329.392 1059.56 330.016 1059.86 330.56C1060.18 331.088 1060.62 331.496 1061.18 331.784C1061.76 332.056 1062.43 332.192 1063.2 332.192C1063.89 332.192 1064.49 332.088 1065 331.88C1065.53 331.672 1066.01 331.36 1066.44 330.944L1068.43 333.104C1067.84 333.776 1067.09 334.296 1066.2 334.664C1065.3 335.016 1064.27 335.192 1063.1 335.192Z" fill="#272341"/>
<a href="mailto:contact@timdehof.dev">
<rect fill="black" fill-opacity="0" x="0.113281" y="-2.628" width="219.777" height="29.256"/>
</a>
</g>
<defs>
<linearGradient id="paint0_linear_3_173" x1="368" y1="-368" x2="1552" y2="816" gradientUnits="userSpaceOnUse">
<stop stop-color="#20BDFF"/>
<stop offset="1" stop-color="#A5FECB"/>
</linearGradient>
<clipPath id="clip0_3_173">
<rect width="1920" height="448" fill="white"/>
</clipPath>
</defs>
</svg>
